<svg aria-label="라이브 방송" xmlns="http://www.w3.org/2000/svg" class="x1lliihq x1n2onr6 x5n08af" fill="currentColor" height="24" role="img" viewBox="0 0 24 24" width="24"><title>라이브 방송</title><path d="M8.995 7.584a1 1 0 0 0-1.414.001 6.258 6.258 0 0 0 0 8.84 1 1 0 1 0 1.414-1.415 4.257 4.257 0 0 1 0-6.01 1 1 0 0 0 0-1.416Zm-5.994 4.42a8.94 8.94 0 0 1 2.636-6.363 1 1 0 0 0-1.414-1.414 11 11 0 0 0 0 15.556 1 1 0 1 0 1.414-1.414A8.941 8.941 0 0 1 3 12.005Zm16.777-7.778a1 1 0 1 0-1.414 1.414 9.001 9.001 0 0 1 0 12.729 1 1 0 1 0 1.414 1.414 11 11 0 0 0 0-15.557ZM16.42 7.584A1 1 0 1 0 15.006 9a4.257 4.257 0 0 1 0 6.01 1 1 0 1 0 1.414 1.415 6.258 6.258 0 0 0 0-8.84ZM12 10.5a1.5 1.5 0 1 0 1.5 1.5 1.5 1.5 0 0 0-1.5-1.5Z" fill-rule="evenodd"></path></svg>